<?xml version="1.0" standalone="no"?>
<svg
  width="600"
  height="600"
  viewBox="0 0 600 600"
  xmlns="http://www.w3.org/2000/svg"
>
  <g transform="translate(300,300)">
    <path d="M138,-177.5C175.8,-162.6,201.1,-118.1,198.6,-76.2C196.2,-34.3,166.1,4.9,141.7,35.5C117.3,66.1,98.6,88.1,76,117.5C53.3,147,26.6,184,-2.1,186.8C-30.8,189.7,-61.5,158.3,-91.5,131.2C-121.4,104.1,-150.6,81.3,-160.3,52C-169.9,22.7,-160.1,-13.1,-155.6,-57.9C-151.1,-102.7,-152,-156.5,-126.9,-175.5C-101.9,-194.6,-50.9,-178.8,-0.4,-178.2C50.2,-177.7,100.3,-192.4,138,-177.5Z" fill="#8ed1fc" />
  </g>
</svg>
    